<svg width="98" height="98" viewBox="0 0 98 98" fill="none" xmlns="http://www.w3.org/2000/svg">
<ellipse cx="48.6509" cy="33.6407" rx="20.9197" ry="20.1858" fill="#D8E5C6"/>
<path d="M54.1962 68.5552L64.8865 59.4728L80.9426 73.9716L71.8786 77.9476L69.5175 86.0481L54.1962 68.5552Z" fill="#83A958"/>
<path d="M49 23.484L51.2504 30.5021L58.5327 30.5021L52.6412 34.8395L54.8915 41.8576L49 37.5202L43.1085 41.8576L45.3589 34.8395L39.4673 30.5021L46.7496 30.5021L49 23.484Z" fill="#FACD47"/>
<path d="M39.8216 65.0604H57.4802V91.6264L49.2147 88.0526L39.8216 91.6264V65.0604Z" fill="#83A958"/>
<path d="M75.487 33.6407C75.487 47.5811 63.6216 59.1467 48.6509 59.1467C33.6802 59.1467 21.8148 47.5811 21.8148 33.6407C21.8148 19.7003 33.6802 8.13458 48.6509 8.13458C63.6216 8.13458 75.487 19.7003 75.487 33.6407Z" stroke="#E8E4D8" stroke-width="7"/>
<path d="M48.4105 57.4219H49C55.27 57.4342 61.2911 54.97 65.7533 50.5653C70.2155 46.1606 72.7576 40.1719 72.8266 33.9024C72.8956 27.6328 70.4859 21.5896 66.1217 17.0878C61.7575 12.586 55.7921 9.98981 49.5234 9.86416C43.2547 9.7385 37.19 12.0935 32.649 16.4169C28.1079 20.7402 25.4579 26.6819 25.2756 32.9492C25.0933 39.2165 27.3934 45.3022 31.6755 49.8822C35.9576 54.4622 41.8752 57.1657 48.1406 57.4047C48.155 57.4064 48.1693 57.4091 48.1839 57.4104C48.2593 57.4179 48.3349 57.4219 48.4105 57.4219ZM29.8594 33.6875C29.8594 29.9018 30.982 26.2012 33.0852 23.0535C35.1884 19.9059 38.1777 17.4526 41.6752 16.0039C45.1727 14.5552 49.0212 14.1761 52.7342 14.9147C56.4471 15.6532 59.8576 17.4762 62.5345 20.153C65.2113 22.8299 67.0343 26.2404 67.7729 29.9534C68.5114 33.6663 68.1323 37.5148 66.6836 41.0123C65.2349 44.5098 62.7816 47.4992 59.634 49.6024C56.4863 51.7056 52.7857 52.8281 49 52.8281C43.9254 52.8224 39.0602 50.804 35.4719 47.2156C31.8835 43.6273 29.8651 38.7622 29.8594 33.6875Z" fill="black"/>
<path d="M85.6438 74.1958L70.2547 58.8067C73.9106 55.7214 76.8488 51.875 78.864 47.5363C80.8792 43.1977 81.9228 38.4713 81.9219 33.6875C81.9219 15.5343 67.1532 0.765625 49 0.765625C30.8468 0.765625 16.0781 15.5343 16.0781 33.6875C16.0781 47.8031 25.0086 59.8707 37.5156 64.5422V94.9375C37.4582 96.7155 39.6391 97.8821 41.0865 96.8485L49 91.573L56.9135 96.8485C58.3632 97.8821 60.5405 96.7145 60.4844 94.9375V81.5182L69.4039 90.4366C70.628 91.736 72.9855 91.0156 73.2805 89.2629L75.1448 79.9368L84.471 78.0721C86.2249 77.7791 86.9409 75.4129 85.6438 74.1958ZM20.6719 33.6875C20.6719 18.0674 33.3799 5.35938 49 5.35938C64.6201 5.35938 77.3281 18.0674 77.3281 33.6875C77.3281 49.3076 64.6201 62.0156 49 62.0156C33.3799 62.0156 20.6719 49.3076 20.6719 33.6875ZM50.274 86.9015C49.8967 86.65 49.4534 86.5158 49 86.5158C48.5466 86.5158 48.1033 86.65 47.726 86.9015L42.1094 90.6458V65.882C46.6519 66.8523 51.3481 66.8523 55.8906 65.882V90.6462L50.274 86.9015ZM72.7415 75.7324C72.2967 75.8213 71.8883 76.0399 71.5676 76.3606C71.2469 76.6813 71.0283 77.0897 70.9394 77.5345L69.6162 84.1533L60.4844 75.0215V64.5422C62.589 63.7557 64.6072 62.7551 66.5074 61.5563L79.3605 74.4096L72.7415 75.7324Z" fill="black"/>
<path d="M55.0523 45.3604C56.6503 46.2589 58.737 44.7456 58.3764 42.9452L57.2584 36.2183L62.1171 31.4331C63.4663 30.189 62.6702 27.739 60.8473 27.5256L54.104 26.51L51.0544 20.4104C50.287 18.7427 47.713 18.7431 46.9456 20.4104L43.896 26.5098L37.1527 27.5254C35.3294 27.7395 34.5341 30.188 35.8829 31.4329L40.7416 36.2181L39.6236 42.945C39.2639 44.7454 41.3462 46.2583 42.9477 45.3602L49 42.2185L55.0523 45.3604ZM44.9077 39.1667L45.4682 35.7951C45.5285 35.4317 45.5006 35.0591 45.3868 34.7088C45.273 34.3585 45.0766 34.0407 44.8141 33.7822L42.3793 31.3837L45.7591 30.8746C46.1234 30.8197 46.4692 30.6781 46.7672 30.4615C47.0653 30.245 47.3069 29.96 47.4716 29.6304L49 26.5735L50.5284 29.6306C50.6931 29.9602 50.9347 30.2452 51.2328 30.4617C51.5308 30.6783 51.8766 30.8199 52.2409 30.8748L55.6207 31.3839L53.1855 33.7832C52.9231 34.0417 52.7266 34.3595 52.6128 34.7098C52.499 35.0601 52.4711 35.4327 52.5314 35.796L53.0919 39.1676L50.0583 37.5922C49.7313 37.4225 49.3684 37.3338 49 37.3338C48.6316 37.3338 48.2687 37.4225 47.9417 37.5922L44.9077 39.1667Z" fill="black"/>
</svg>
