<svg width="98" height="98" viewBox="0 0 98 98" fill="none" xmlns="http://www.w3.org/2000/svg">
<path d="M62.8058 16.9896V24.397L63.2116 24.7866L63.6012 25.1924H71.0077H78.399V55.9739V86.7716L77.9924 87.1612L77.6028 87.567H48.5114H19.4191L19.0295 87.1612L18.6237 86.7716V48.5835V10.3946L19.0295 10.005L19.4191 9.5992H41.1209H62.8058V16.9896Z" fill="#D8E5C6"/>
<path d="M18.6237 7.21127C17.8274 7.47102 16.4633 8.8683 16.2196 9.69682C15.9268 10.6713 15.9268 86.4966 16.2196 87.4711C16.4794 88.3641 17.8274 89.713 18.7213 89.9728C19.6958 90.2648 77.3277 90.2648 78.3031 89.9728C79.1961 89.713 80.545 88.365 80.8048 87.4711C80.9508 86.9516 81 79.5119 81 55.0648V23.3249L72.8286 15.1704L64.6742 6.99989L41.9333 7.01601C25.852 7.03214 19.0295 7.08138 18.6237 7.21127ZM62.8058 16.9896V24.397L63.2116 24.7866L63.6012 25.1924H71.0077H78.399V55.9739V86.7716L77.9924 87.1612L77.6028 87.567H48.5114H19.4191L19.0295 87.1612L18.6237 86.7716V48.5835V10.3946L19.0295 10.005L19.4191 9.5992H41.1209H62.8058V16.9896ZM71.0086 17.0711L76.5315 22.594H70.9602H65.4051V17.0711C65.4051 14.0338 65.4212 11.5482 65.4535 11.5482C65.4696 11.5482 67.9713 14.0329 71.0086 17.0711Z" fill="black"/>
<path d="M71.0086 17.0711L76.5315 22.594H70.9602H65.4051V17.0711C65.4051 14.0338 65.4212 11.5482 65.4535 11.5482C65.4696 11.5482 67.9713 14.0329 71.0086 17.0711Z" fill="white"/>
<path d="M27.1515 22.7882C26.3229 23.2593 26.1769 24.1523 26.8263 24.7865L27.216 25.1922H40.715H54.2132L54.6028 24.7865C55.1384 24.2508 55.1223 23.6498 54.5374 23.0649L54.0663 22.5938H40.7634C31.0827 22.6099 27.3951 22.6583 27.1515 22.7882Z" fill="black"/>
<path d="M27.1356 30.5856C26.3724 30.943 26.2264 31.9829 26.8274 32.5839L27.2171 32.9897H48.5123H69.8066L70.1963 32.5839C70.765 32.0151 70.7319 31.3496 70.0987 30.8131L69.5953 30.3904L48.5437 30.4065C34.38 30.4073 27.3631 30.4719 27.1356 30.5856Z" fill="black"/>
<path d="M27.1515 38.3817C26.3229 38.8528 26.1769 39.7458 26.8263 40.38L27.216 40.7857H48.5112H69.8064L70.196 40.38C70.7317 39.8443 70.7155 39.2433 70.1307 38.6584L69.6595 38.1873H48.5604C33.0147 38.2026 27.3951 38.2518 27.1515 38.3817Z" fill="black"/>
<path d="M27.1356 46.1791C26.3724 46.5365 26.2264 47.5756 26.8274 48.1774L27.2171 48.5832H48.5123H69.8067L70.1963 48.1774C70.7319 47.6418 70.7158 47.0408 70.1309 46.4559L69.6598 45.9847L48.559 46.0009C34.3961 46 27.3631 46.0654 27.1356 46.1791Z" fill="black"/>
<path d="M27.1356 53.9761C26.3724 54.3335 26.2264 55.3734 26.8274 55.9744L27.2171 56.3802H38.1168H49.0165L49.4062 55.9744C49.9418 55.4387 49.9257 54.8377 49.3408 54.2528L48.8697 53.7817L38.1652 53.7978C31.1636 53.797 27.3631 53.8624 27.1356 53.9761Z" fill="black"/>
<path d="M61.506 53.9438C57.0876 54.7723 54.2939 58.8979 55.1869 63.2348C55.5765 65.0863 57.0876 67.2959 58.5655 68.1728C58.8414 68.335 59.0689 68.5463 59.0689 68.644C59.0689 68.7255 58.4517 71.2594 57.6877 74.2475C56.9407 77.2364 56.3397 79.6888 56.3558 79.705C56.3719 79.7211 57.8337 78.8603 59.5884 77.8043L62.7887 75.8714L66.0051 77.8043C67.7759 78.8765 69.2377 79.7211 69.2538 79.705C69.2699 79.6888 68.6689 77.2364 67.9219 74.2475C67.1588 71.2585 66.5408 68.7246 66.5408 68.644C66.5408 68.5463 66.7683 68.335 67.0442 68.1728C68.5221 67.2959 70.0331 65.0863 70.4227 63.2348C71.219 59.4013 69.0416 55.5516 65.3549 54.2842C64.2675 53.8954 62.5136 53.7494 61.506 53.9438Z" fill="#A3C185" stroke="black" stroke-width="2"/>
<path d="M27.1515 61.7722C26.3229 62.2433 26.1769 63.1364 26.8263 63.7705L27.216 64.1763H38.1157H49.0154L49.405 63.7705C49.9407 63.2348 49.9246 62.6338 49.3397 62.0489L48.8685 61.5778H38.1641C30.4324 61.5939 27.379 61.6423 27.1515 61.7722Z" fill="black"/>
<path d="M27.1356 69.5696C26.3724 69.927 26.2264 70.9661 26.8274 71.5679L27.2171 71.9737H38.1168H49.0165L49.4062 71.5679C49.9418 71.0323 49.9257 70.4304 49.3408 69.8464L48.8697 69.3752L38.1652 69.3914C31.1636 69.3914 27.3631 69.4559 27.1356 69.5696Z" fill="black"/>
<path d="M27.1515 77.3666C26.3229 77.8377 26.1769 78.7307 26.8263 79.3649L27.216 79.7706H38.1157H49.0154L49.405 79.3649C49.9407 78.8292 49.9246 78.2282 49.3397 77.6433L48.8685 77.1722H38.1641C30.4324 77.1875 27.379 77.2367 27.1515 77.3666Z" fill="black"/>
</svg>
