<svg width="98" height="98" viewBox="0 0 98 98" fill="none" xmlns="http://www.w3.org/2000/svg">
<path d="M38.4084 9.61295L46.3088 8.82883L54.4591 12.6757L57.9896 20.2493V28.6401L50.0798 30.2273L41.4429 26.1399L38.4084 17.9652V9.61295Z" fill="#A3C185"/>
<path d="M86.7789 23.5099L79.0272 20.602L69.7453 22.3405L64.0946 29.1058L61.7791 37.6457L69.3187 41.3735L79.1576 39.5202L84.474 32.0106L86.7789 23.5099Z" fill="#A3C185"/>
<rect x="9.70078" y="53.33" width="11.0844" height="35.5091" fill="#83A958"/>
<path d="M22.8621 57.8621L36.6195 59.5013L45.1081 65.4795L61.2072 67.1187L63.0611 70.1078L68.3166 71.9009L81.4043 64.4861L85.0144 65.4795L86.5755 70.1078L59.7437 85.5354L44.6441 84.2903L33.6555 78.7418L22.8621 76.8573V57.8621Z" fill="#FFDECF"/>
<path d="M40.2874 27.3845C44.6387 31.7386 50.9128 31.9591 52.1271 31.9591L57.9022 31.9563V58.2932C57.9022 59.0598 58.519 59.6794 59.2856 59.6794C60.0522 59.6794 60.6718 59.0598 60.6718 58.2932V23.6875C60.6843 23.3909 60.9102 16.371 56.1014 11.5622C51.8721 7.32863 45.9861 7 44.2838 7L37.1115 7.00276C36.3449 7.00276 35.7254 7.6238 35.7254 8.38893L35.7268 15.2563C35.7142 15.5531 35.4786 22.5729 40.2874 27.3845ZM38.4977 15.3146V9.77527L44.2838 9.77251C45.3041 9.77251 50.5759 9.95266 54.1413 13.5223C58.0768 17.4578 57.9077 23.5184 57.9049 23.6321V27.2113L43.6364 12.9443C43.0943 12.4022 42.217 12.4022 41.6763 12.9443C41.1344 13.4864 41.1344 14.3625 41.6763 14.9044L55.9572 29.1839L52.127 29.1867C51.1053 29.1867 45.8266 29.0051 42.2473 25.4231C38.3148 21.4889 38.4949 15.4298 38.4977 15.3146Z" fill="black"/>
<path d="M59.2785 38.2752C59.2278 38.457 59.2139 38.6456 59.2388 38.8345C59.2424 38.8585 59.2571 38.878 59.2611 38.9006C59.2891 39.0515 59.3278 39.1996 59.4079 39.3384C59.4822 39.4672 59.5849 39.5647 59.69 39.6585C59.7164 39.6826 59.7319 39.7155 59.76 39.7387C59.9063 39.8506 60.0714 39.9345 60.2482 39.9814C60.2523 39.9824 60.2554 39.9817 60.2593 39.9828L66.885 41.7357L67.1665 41.8146C68.3394 42.1252 74.4571 43.5185 79.7951 40.43C85.704 37.0147 87.3139 30.1721 87.3655 29.9389L89.1807 23.244C89.3811 22.505 88.9453 21.7466 88.2048 21.5505L81.5658 19.7941L81.2846 19.7139C80.1117 19.4033 73.9963 18.0122 68.6556 21.1C62.7494 24.516 61.1424 31.3593 61.0906 31.5925L59.2786 38.2752L59.2785 38.2752ZM70.0355 23.4944C74.4264 20.956 79.5714 22.1304 80.5582 22.3917L86.1395 23.874L84.6744 29.2825C84.6598 29.3417 83.2481 35.2409 78.4148 38.0354C74.0265 40.5747 68.8792 39.3982 67.8922 39.1368L64.2077 38.1597L81.7285 28.0259C82.3941 27.641 82.6235 26.7947 82.2418 26.1326C81.8602 25.4705 81.0127 25.246 80.3485 25.6313L62.8293 35.7641L63.7823 32.2435C63.7956 32.1852 65.1759 26.3063 70.0355 23.4944Z" fill="black"/>
<path d="M84.2862 62.6391C82.8556 62.2551 81.3613 62.452 80.1648 63.1465L64.2108 70.9122C61.7309 72.1528 59.2274 72.1528 53.7407 72.1528C48.3774 72.1528 40.1889 70.7984 40.1057 70.7859C39.3502 70.6612 38.6364 71.17 38.5116 71.924C38.3854 72.6796 38.8956 73.3934 39.651 73.5196C39.9948 73.5778 48.1458 74.9253 53.7407 74.9253C59.4962 74.9253 62.3852 74.9253 65.4363 73.3991L81.4652 65.5933C82.1056 65.2232 82.8542 65.1248 83.5681 65.316C84.2834 65.5086 84.8823 65.9675 85.2509 66.6079C86.0161 67.9317 85.5601 69.6313 84.1988 70.4186L65.4556 82.0837C65.4168 82.1101 61.4175 84.6288 52.3545 84.6288C44.4961 84.6288 32.3555 77.9389 32.1807 77.8432C32.0545 77.7808 29.0479 76.3115 23.2437 76.3115C22.4772 76.3115 21.8576 76.9325 21.8576 77.6976C21.8576 78.4628 22.4772 79.0838 23.2437 79.0838C28.2855 79.0838 30.8832 80.2968 30.8887 80.2968C30.8887 80.2968 30.8887 80.2968 30.8887 80.2953C31.4128 80.5864 43.7764 87.4012 52.3545 87.4012C62.3631 87.4012 66.8017 84.5179 66.9487 84.4194L85.6239 72.7959C88.2702 71.2669 89.1811 67.8692 87.6534 65.2216C86.9129 63.9394 85.7167 63.0217 84.2862 62.6391Z" fill="black"/>
<path d="M15.9311 81.1635C15.9311 80.0171 14.9982 79.0842 13.8518 79.0842C12.7054 79.0842 11.7725 80.0171 11.7725 81.1635C11.7725 82.3099 12.7054 83.2428 13.8518 83.2428C14.9982 83.2428 15.9311 82.3099 15.9311 81.1635Z" fill="black"/>
<path d="M18.7035 51.3595H10.3862C9.61958 51.3595 9 51.9805 9 52.7457C9 53.5108 9.61958 54.1318 10.3862 54.1318H18.7035C19.4687 54.1318 20.0897 54.7542 20.0897 55.518V86.0149C20.0897 86.7788 19.4687 87.4011 18.7035 87.4011H10.3862C9.61958 87.4011 9 88.0222 9 88.7873C9 89.5524 9.61958 90.1735 10.3862 90.1735H18.7035C20.9963 90.1735 22.8622 88.3076 22.8622 86.0148V55.5182C22.8622 53.2254 20.9963 51.3595 18.7035 51.3595Z" fill="black"/>
<path d="M23.2437 59.6769H34.3336C35.9513 59.6769 38.7002 61.7397 41.1261 63.5583C44.1674 65.8401 47.0411 67.9943 49.582 67.9943H57.8993C60.005 67.9943 61.0502 68.9493 61.078 68.9743C61.3483 69.2447 61.7032 69.3805 62.058 69.3805C62.413 69.3805 62.7678 69.2447 63.0381 68.9743C63.58 68.4322 63.58 67.5562 63.0381 67.0142C62.8552 66.8313 61.1529 65.2218 57.8993 65.2218H49.582C47.9643 65.2218 45.2154 63.159 42.7895 61.3404C39.7482 59.0586 36.8745 56.9044 34.3336 56.9044H23.2437C22.4772 56.9044 21.8576 57.5255 21.8576 58.2906C21.8576 59.0557 22.4772 59.6769 23.2437 59.6769Z" fill="black"/>
<path d="M61.5894 67.6727L66.589 72.1812" stroke="black" stroke-width="3"/>
</svg>
