<svg width="98" height="98" viewBox="0 0 98 98" fill="none" xmlns="http://www.w3.org/2000/svg">
<path d="M71.5609 14.7526L49.561 5.12244C49.1869 4.95919 48.7617 4.95919 48.3876 5.12244L26.3877 14.7526C25.8534 14.9857 25.508 15.5131 25.5077 16.096V39.1226C25.5156 44.2975 28.0023 49.1553 32.1957 52.1877L47.4006 63.1539C48.3396 63.8336 49.609 63.8336 50.548 63.1539L65.7529 52.1892C69.9463 49.1568 72.433 44.299 72.4409 39.1241V16.096C72.4406 15.5131 72.0952 14.9857 71.5609 14.7526ZM69.5076 39.1241C69.5009 43.3568 67.4668 47.33 64.0369 49.8102L48.9743 60.6738L33.9117 49.8102C30.4818 47.33 28.4477 43.3568 28.441 39.1241V17.0552L48.9743 8.06751L69.5076 17.0552V39.1241Z" fill="black"/>
<path d="M48.3877 11.5256L32.2544 18.5891C31.7202 18.8223 31.3747 19.3497 31.3744 19.9326V39.1239C31.379 42.4145 32.9606 45.5036 35.6278 47.431L48.1164 56.4393C48.6287 56.8088 49.3201 56.8088 49.8324 56.4393L62.321 47.431C64.9882 45.5036 66.5698 42.4145 66.5744 39.1239V19.9326C66.5741 19.3497 66.2286 18.8223 65.6944 18.5891L49.5611 11.5256C49.187 11.3624 48.7618 11.3624 48.3877 11.5256ZM63.641 20.8903V39.1239C63.6366 41.472 62.5078 43.6761 60.605 45.0521L48.9744 53.4414L37.3438 45.0521C35.441 43.6761 34.3123 41.472 34.3078 39.1239V20.8903L48.9744 14.4707L63.641 20.8903Z" fill="black"/>
<path d="M63.641 20.8903V39.1239C63.6366 41.4721 62.5078 43.6761 60.605 45.0521L48.9744 53.4414L37.3438 45.0521C35.441 43.6761 34.3123 41.4721 34.3078 39.1239V20.8903L48.9744 14.4707L63.641 20.8903Z" fill="#D8E5C6"/>
<path fill-rule="evenodd" clip-rule="evenodd" d="M69.5076 39.1241C69.5009 43.3568 67.4668 47.33 64.0369 49.8102L48.9743 60.6738L33.9117 49.8102C30.4818 47.33 28.4477 43.3568 28.441 39.1241V17.0552L48.9743 8.0675L69.5076 17.0552V39.1241ZM32.2544 18.5891L48.3877 11.5257C48.7618 11.3624 49.187 11.3624 49.5611 11.5257L65.6944 18.5891C66.2286 18.8223 66.5741 19.3497 66.5744 19.9326V39.1239C66.5698 42.4146 64.9882 45.5037 62.321 47.4311L49.8324 56.4393C49.3201 56.8088 48.6287 56.8088 48.1164 56.4393L35.6278 47.4311C32.9606 45.5037 31.379 42.4146 31.3744 39.1239V19.9326C31.3747 19.3497 31.7202 18.8223 32.2544 18.5891Z" fill="#96B275"/>
<path d="M17.1257 53.6921L13.9533 46.2796C13.2787 44.7513 11.84 43.6991 10.1792 43.5193C8.51845 43.3394 6.88787 44.0593 5.90172 45.4076C4.91556 46.756 4.72366 48.528 5.39829 50.0562L11.1462 62.7003C11.9216 64.412 13.0003 65.9693 14.3303 67.2969L23.3693 76.3374C22.8603 76.8769 22.576 77.5902 22.5744 78.332V90.0653C22.5744 91.6854 23.8877 92.9987 25.5077 92.9987H41.641C43.2611 92.9987 44.5744 91.6854 44.5744 90.0653V78.332C44.5744 76.712 43.2611 75.3987 41.641 75.3987V72.6692C41.686 69.1957 40.5527 65.8094 38.4261 63.0626C37.1793 61.4227 35.4801 60.1834 33.5377 59.4971C30.4487 58.1993 27.6078 56.3762 25.1411 54.1086C22.8514 52.2228 19.5986 52.0538 17.1257 53.6921ZM41.641 90.0653H25.5077V78.332H41.641V90.0653ZM36.1366 64.8945C37.8462 67.1218 38.7523 69.8618 38.7077 72.6692V75.3987H26.5799L16.4041 65.223C15.3234 64.1438 14.4464 62.8783 13.8155 61.4874L8.06762 48.8433C7.82233 48.3036 7.86798 47.6763 8.18882 47.1778C8.50967 46.6794 9.06176 46.378 9.65455 46.3778C10.3522 46.3773 10.9826 46.7935 11.2562 47.4353L14.5371 55.0869C15.4083 57.1283 16.6641 58.9831 18.236 60.5502L24.9357 67.2514C25.304 67.6327 25.8493 67.7856 26.3621 67.6513C26.8749 67.5171 27.2753 67.1167 27.4095 66.6039C27.5438 66.0911 27.3909 65.5458 27.0096 65.1775L20.3099 58.4763C19.6362 57.8043 19.0304 57.0674 18.5015 56.2763C19.91 55.1925 21.8804 55.2254 23.252 56.3555C25.9937 58.8717 29.1625 60.8783 32.6093 62.2809C34.0137 62.7915 35.2392 63.6996 36.1366 64.8945Z" fill="black"/>
<path d="M41.641 90.0653H25.5077V78.332H41.641V90.0653Z" fill="#96B275"/>
<path fill-rule="evenodd" clip-rule="evenodd" d="M36.1366 64.8945C37.8462 67.1218 38.7523 69.8618 38.7077 72.6692V75.3987H26.5799L16.4041 65.223C15.3234 64.1438 14.4464 62.8783 13.8155 61.4874L8.06762 48.8433C7.82233 48.3036 7.86798 47.6763 8.18882 47.1778C8.50967 46.6794 9.06176 46.378 9.65455 46.3778C10.3522 46.3773 10.9826 46.7935 11.2562 47.4353L14.5371 55.0869C15.4083 57.1283 16.6641 58.9831 18.236 60.5502L24.9357 67.2514C25.304 67.6327 25.8493 67.7856 26.3621 67.6513C26.8749 67.5171 27.2753 67.1167 27.4095 66.6039C27.5438 66.0911 27.3909 65.5458 27.0096 65.1775L20.3099 58.4763C19.6362 57.8043 19.0304 57.0674 18.5015 56.2763C19.91 55.1925 21.8804 55.2254 23.252 56.3555C25.9937 58.8717 29.1625 60.8783 32.6093 62.2809C34.0137 62.7915 35.2392 63.6996 36.1366 64.8945Z" fill="#FFDECF"/>
<path d="M37.241 82.7325H35.7744C34.9644 82.7325 34.3077 83.3892 34.3077 84.1992C34.3077 85.0092 34.9644 85.6659 35.7744 85.6659H37.241C38.051 85.6659 38.7077 85.0092 38.7077 84.1992C38.7077 83.3892 38.051 82.7325 37.241 82.7325Z" fill="black"/>
<path d="M86.8026 62.7007L92.5505 50.0566C93.2572 48.5232 93.0824 46.7279 92.093 45.3597C91.1037 43.9915 89.4536 43.263 87.776 43.4536C86.0984 43.6443 84.6539 44.7246 83.9969 46.2799L80.8318 53.6646C78.3504 52.0344 75.096 52.2128 72.8077 54.1046C70.341 56.3721 67.5001 58.1952 64.411 59.4931C62.4687 60.1793 60.7695 61.4187 59.5226 63.0586C57.3951 65.8066 56.2618 69.1946 56.3077 72.6696V75.3991C54.6877 75.3991 53.3744 76.7124 53.3744 78.3324V90.0657C53.3744 91.6857 54.6877 92.999 56.3077 92.999H72.441C74.0611 92.999 75.3744 91.6857 75.3744 90.0657V78.3324C75.3728 77.5906 75.0885 76.8773 74.5794 76.3377L83.6185 67.2972C84.9484 65.9697 86.0272 64.4124 86.8026 62.7007ZM72.441 90.0657H56.3077V78.3324H72.441V90.0657ZM71.3689 75.3991H59.241V72.6696C59.1968 69.8627 60.1029 67.1232 61.8121 64.8963C62.7075 63.7022 63.9304 62.7938 65.3321 62.2812C68.7796 60.879 71.9489 58.8724 74.6909 56.3559C76.061 55.2171 78.037 55.1788 79.4502 56.2635C78.9197 57.0604 78.311 57.8023 77.633 58.4782L70.9333 65.1794C70.3775 65.7549 70.3854 66.6696 70.9512 67.2354C71.5169 67.8011 72.4317 67.809 73.0072 67.2532L79.7069 60.552C81.2788 58.985 82.5346 57.1302 83.4058 55.0887L86.6867 47.4357C86.961 46.7947 87.5912 46.3792 88.2883 46.3797C88.8811 46.3799 89.4332 46.6812 89.7541 47.1797C90.0749 47.6782 90.1206 48.3055 89.8753 48.8451L84.1274 61.4892C83.4964 62.8801 82.6195 64.1456 81.5387 65.2248L71.3689 75.3991Z" fill="black"/>
<path d="M72.441 90.0657H56.3077V78.3324H72.441V90.0657Z" fill="#83A958"/>
<path d="M59.241 75.3991H71.3689L81.5387 65.2248C82.6195 64.1456 83.4964 62.8801 84.1274 61.4892L89.8753 48.8451C90.1206 48.3055 90.0749 47.6782 89.7541 47.1797C89.4332 46.6812 88.8811 46.3799 88.2883 46.3797C87.5912 46.3792 86.961 46.7947 86.6867 47.4357L83.4058 55.0887C82.5346 57.1302 81.2788 58.985 79.7069 60.552L73.0072 67.2532C72.4317 67.809 71.5169 67.8011 70.9512 67.2354C70.3854 66.6696 70.3775 65.7549 70.9333 65.1794L77.633 58.4782C78.311 57.8023 78.9197 57.0604 79.4502 56.2635C78.037 55.1788 76.061 55.2171 74.6909 56.3559C71.9489 58.8724 68.7796 60.879 65.3321 62.2812C63.9304 62.7938 62.7075 63.7022 61.8121 64.8963C60.1029 67.1232 59.1968 69.8627 59.241 72.6696V75.3991Z" fill="#FFDECF"/>
<path d="M62.1743 82.7325H60.7076C59.8976 82.7325 59.2409 83.3892 59.2409 84.1992C59.2409 85.0092 59.8976 85.6659 60.7076 85.6659H62.1743C62.9843 85.6659 63.6409 85.0092 63.6409 84.1992C63.6409 83.3892 62.9843 82.7325 62.1743 82.7325Z" fill="black"/>
<path d="M41.0544 36.0923C40.4063 35.6062 39.487 35.7376 39.001 36.3856C38.515 37.0336 38.6463 37.9529 39.2944 38.4389L45.161 42.8389C45.4149 43.0293 45.7237 43.1322 46.041 43.1322C46.1241 43.132 46.2069 43.1251 46.2889 43.1117C46.6861 43.0435 47.0378 42.8149 47.2613 42.4796L58.9946 24.8796C59.2854 24.4437 59.3216 23.8857 59.0894 23.4158C58.8573 22.946 58.3921 22.6357 57.8691 22.6018C57.3462 22.568 56.8449 22.8157 56.5541 23.2516L45.6802 39.5624L41.0544 36.0923Z" fill="#83A958"/>
</svg>
