<svg width="20" height="20" viewBox="0 0 20 20" fill="none" xmlns="http://www.w3.org/2000/svg">
<path d="M19.2857 2.28577H0.714286C0.319196 2.28577 0 2.60496 0 3.00005V17.2858C0 17.6809 0.319196 18 0.714286 18H19.2857C19.6808 18 20 17.6809 20 17.2858V3.00005C20 2.60496 19.6808 2.28577 19.2857 2.28577ZM18.3929 4.75898V16.3929H1.60714V4.75898L0.991071 4.27907L1.8683 3.15184L2.82366 3.89514H17.1786L18.1339 3.15184L19.0112 4.27907L18.3929 4.75898ZM17.1786 3.89291L10 9.47327L2.82143 3.89291L1.86607 3.14961L0.988839 4.27684L1.60491 4.75675L9.22991 10.6853C9.44919 10.8557 9.71897 10.9482 9.99665 10.9482C10.2743 10.9482 10.5441 10.8557 10.7634 10.6853L18.3929 4.75898L19.0089 4.27907L18.1317 3.15184L17.1786 3.89291Z" fill="#1A2112"/>
</svg>
