<svg width="24" height="24" viewBox="0 0 24 24" fill="none" xmlns="http://www.w3.org/2000/svg">
<g clip-path="url(#clip0)">
<path d="M7.05709 0C3.18327 0 0 3.17891 0 7.05709V16.9429C0 20.8167 3.17891 24 7.05709 24H16.9429C20.8167 24 24 20.8211 24 16.9429V7.05818C24 3.18327 20.8211 0 16.9429 0H7.05709ZM7.05709 2.18182H16.9429C17.5834 2.18096 18.2177 2.30647 18.8096 2.55117C19.4015 2.79587 19.9393 3.15495 20.3922 3.60783C20.8451 4.06071 21.2041 4.5985 21.4488 5.19039C21.6935 5.78227 21.819 6.41662 21.8182 7.05709V16.9429C21.819 17.5834 21.6935 18.2177 21.4488 18.8096C21.2041 19.4015 20.8451 19.9393 20.3922 20.3922C19.9393 20.8451 19.4015 21.2041 18.8096 21.4488C18.2177 21.6935 17.5834 21.819 16.9429 21.8182H7.05818C6.41762 21.8192 5.78315 21.6938 5.19114 21.4491C4.59913 21.2045 4.06121 20.8455 3.60822 20.3926C3.15522 19.9397 2.79604 19.4018 2.55128 18.8099C2.30651 18.2179 2.18096 17.5835 2.18182 16.9429V7.05818C2.18081 6.41762 2.30622 5.78315 2.55086 5.19114C2.79549 4.59913 3.15455 4.06121 3.60744 3.60822C4.06034 3.15522 4.59818 2.79604 5.19013 2.55128C5.78209 2.30651 6.41653 2.18096 7.05709 2.18182ZM18.4429 4.56873C18.313 4.56815 18.1842 4.59332 18.064 4.64279C17.9438 4.69225 17.8346 4.76503 17.7427 4.85692C17.6509 4.94882 17.5781 5.058 17.5286 5.17818C17.4791 5.29835 17.454 5.42714 17.4545 5.55709C17.4545 6.10691 17.8931 6.54545 18.4429 6.54545C18.573 6.54618 18.7019 6.52111 18.8222 6.47171C18.9425 6.42231 19.0518 6.34955 19.1438 6.25765C19.2358 6.16574 19.3087 6.0565 19.3582 5.93626C19.4077 5.81601 19.4329 5.68714 19.4324 5.55709C19.4329 5.42704 19.4077 5.29817 19.3582 5.17792C19.3087 5.05768 19.2358 4.94844 19.1438 4.85654C19.0518 4.76463 18.9425 4.69187 18.8222 4.64247C18.7019 4.59307 18.573 4.56801 18.4429 4.56873ZM12 5.45455C8.4 5.45455 5.45455 8.4 5.45455 12C5.45455 15.6 8.4 18.5455 12 18.5455C15.6 18.5455 18.5455 15.6 18.5455 12C18.5455 8.4 15.6 5.45455 12 5.45455ZM12 7.63636C14.4251 7.63636 16.3636 9.57491 16.3636 12C16.3636 14.4251 14.4251 16.3636 12 16.3636C9.57491 16.3636 7.63636 14.4251 7.63636 12C7.63636 9.57491 9.57491 7.63636 12 7.63636Z" fill="#1A2112"/>
</g>
<defs>
<clipPath id="clip0">
<rect width="24" height="24" fill="white"/>
</clipPath>
</defs>
</svg>
