<svg width="22" height="23" viewBox="0 0 22 23" fill="none" xmlns="http://www.w3.org/2000/svg">
<g clip-path="url(#clip0)">
<path fill-rule="evenodd" clip-rule="evenodd" d="M22 11.7761C22 14.6877 20.8411 17.48 18.7782 19.5388C16.7153 21.5976 13.9174 22.7542 11 22.7542C8.08262 22.7542 5.28473 21.5976 3.22183 19.5388C1.15893 17.48 0 14.6877 0 11.7761C0 8.86458 1.15893 6.07227 3.22183 4.01349C5.28473 1.95471 8.08262 0.798096 11 0.798096C13.9174 0.798096 16.7153 1.95471 18.7782 4.01349C20.8411 6.07227 22 8.86458 22 11.7761ZM11 5.60099C11 5.41902 10.9276 5.2445 10.7986 5.11582C10.6697 4.98715 10.4948 4.91486 10.3125 4.91486C10.1302 4.91486 9.9553 4.98715 9.82636 5.11582C9.69743 5.2445 9.625 5.41902 9.625 5.60099V13.1484C9.62504 13.2693 9.65711 13.3881 9.71796 13.4927C9.77881 13.5973 9.86627 13.684 9.9715 13.744L14.784 16.4885C14.9419 16.5736 15.127 16.5938 15.2996 16.5446C15.4722 16.4954 15.6187 16.3808 15.7078 16.2253C15.7969 16.0697 15.8214 15.8856 15.7762 15.7122C15.7311 15.5388 15.6197 15.3899 15.466 15.2973L11 12.7504V5.60099Z" fill="#96B275"/>
</g>
<defs>
<clipPath id="clip0">
<rect width="22" height="21.9561" fill="white" transform="translate(0 0.798096)"/>
</clipPath>
</defs>
</svg>
