<svg width="30" height="31" viewBox="0 0 30 31" fill="none" xmlns="http://www.w3.org/2000/svg">
<path d="M15 15.1504C14.1712 15.1504 13.3763 14.8218 12.7903 14.2369C12.2042 13.652 11.875 12.8588 11.875 12.0316C11.875 11.2045 12.2042 10.4112 12.7903 9.82631C13.3763 9.24143 14.1712 8.91284 15 8.91284C15.8288 8.91284 16.6237 9.24143 17.2097 9.82631C17.7958 10.4112 18.125 11.2045 18.125 12.0316C18.125 12.4412 18.0442 12.8467 17.8871 13.2251C17.7301 13.6035 17.4999 13.9473 17.2097 14.2369C16.9195 14.5265 16.575 14.7562 16.1959 14.913C15.8167 15.0697 15.4104 15.1504 15 15.1504ZM15 3.29907C12.6794 3.29907 10.4538 4.2191 8.81282 5.85677C7.17187 7.49444 6.25 9.71559 6.25 12.0316C6.25 18.581 15 28.2492 15 28.2492C15 28.2492 23.75 18.581 23.75 12.0316C23.75 9.71559 22.8281 7.49444 21.1872 5.85677C19.5462 4.2191 17.3206 3.29907 15 3.29907Z" fill="#96B275"/>
</svg>
