<svg width="24" height="24" viewBox="0 0 24 24" fill="none" xmlns="http://www.w3.org/2000/svg">
<g clip-path="url(#clip0)">
<path fill-rule="evenodd" clip-rule="evenodd" d="M20.504 3.48819C19.3967 2.37904 18.0793 1.49962 16.6281 0.900865C15.1769 0.302111 13.6209 -0.00407458 12.05 4.09433e-05C5.465 4.09433e-05 0.0999999 5.3358 0.0999999 11.891C0.0950091 13.9783 0.644956 16.0297 1.694 17.837L0 24L6.336 22.3435C8.08799 23.2936 10.0509 23.7922 12.046 23.7939H12.051C18.637 23.7939 23.996 18.4592 24 11.899C24 8.72241 22.758 5.73598 20.504 3.4872V3.48819ZM12.05 21.7841H12.046C10.2676 21.7841 8.52175 21.3086 6.991 20.4073L6.628 20.1933L2.866 21.1738L3.87 17.5254L3.636 17.1521C2.6406 15.5764 2.11362 13.7524 2.116 11.891C2.116 6.44376 6.573 2.0109 12.054 2.0109C13.3584 2.00766 14.6505 2.26202 15.8555 2.75927C17.0605 3.25652 18.1544 3.98677 19.074 4.90774C19.9981 5.8243 20.7306 6.91404 21.2292 8.11401C21.7278 9.31398 21.9826 10.6004 21.979 11.899C21.979 17.3512 17.522 21.7841 12.049 21.7841H12.05ZM17.495 14.3797C17.198 14.2324 15.729 13.5136 15.456 13.4161C15.183 13.3145 14.983 13.2678 14.784 13.5634C14.584 13.8621 14.014 14.532 13.839 14.7301C13.667 14.9242 13.491 14.9521 13.194 14.8038C12.894 14.6565 11.933 14.3409 10.792 13.3265C9.905 12.5401 9.304 11.5645 9.132 11.2688C8.956 10.9702 9.112 10.8109 9.261 10.6616C9.397 10.5302 9.561 10.3162 9.71 10.141C9.858 9.97074 9.91 9.8463 10.01 9.64721C10.108 9.44911 10.058 9.27391 9.983 9.12658C9.909 8.97925 9.312 7.51291 9.062 6.91761C8.819 6.33824 8.573 6.41987 8.39 6.40892C8.218 6.40096 8.019 6.40096 7.82 6.40096C7.62 6.40096 7.296 6.47462 7.022 6.77426C6.749 7.06992 5.979 7.78965 5.979 9.25101C5.979 10.7134 7.049 12.1279 7.199 12.327C7.347 12.5212 9.304 15.5225 12.299 16.8107C13.011 17.1173 13.565 17.3004 13.999 17.4368C14.714 17.6618 15.366 17.6309 15.882 17.5563C16.456 17.4717 17.647 16.8375 17.897 16.1417C18.144 15.4498 18.144 14.8546 18.069 14.7301C17.995 14.6057 17.796 14.531 17.495 14.3797Z" fill="#1A2112"/>
</g>
<defs>
<clipPath id="clip0">
<rect width="24" height="24" fill="white"/>
</clipPath>
</defs>
</svg>
